#!OML:ASF I:\Actors\actors\Patient Classification 2\Patient 1\Session 1\actor1.ASF
:FULLY-SPECIFIED
:DEGREES
216
root -0.969475 18.1706 5.59444 -1.35972 -1.49361 -4.9665
lowerback 3.86436 0.999401 1.64315
upperback 0.567717 1.41626 0.92965
thorax -1.5667 0.699964 -0.0403708
lowerneck -10.7029 0.0387804 -0.577393
upperneck 32.3105 -0.0885572 0.957972
head 12.4482 0.0151395 0.45553
rclavicle -2.86995e-015 -1.11319e-014
rhumerus -10.2547 35.7077 -84.5334
rradius 92.6351
rwrist -34.7958
rhand -15.6343 -59.4822
rfingers 7.12502
rthumb 10.5529 -89.1973
lclavicle -2.86995e-015 -1.11319e-014
lhumerus -18.6024 -23.9301 97.1159
lradius 93.9841
lwrist 72.396
lhand -3.82394 -6.84611
lfingers 7.12502
lthumb 21.923 21.9318
rfemur 0 0 0
rtibia 0
rfoot 0 0
rtoes 0
lfemur 18.7047 -6.71413 -12.353
ltibia -18.8624
lfoot -2.87659 21.6941
ltoes -12.79
217
root -0.968819 18.172 5.59447 -1.34014 -1.48916 -4.98406
lowerback 3.9333 1.00962 1.65374
upperback 0.548558 1.43214 0.918709
thorax -1.62421 0.707323 -0.0599195
lowerneck -10.6749 0.0384408 -0.590343
upperneck 32.233 -0.101224 1.00714
head 12.4103 0.0142223 0.474365
rclavicle 7.60351e-015 -1.98785e-015
rhumerus -9.77897 35.674 -84.2589
rradius 92.4425
rwrist -35.0329
rhand -15.611 -59.6307
rfingers 7.12502
rthumb 10.5754 -89.3446
lclavicle 7.60351e-015 -1.98785e-015
lhumerus -18.5882 -23.9624 97.1272
lradius 94.0193
lwrist 72.4584
lhand -3.89592 -6.8104
lfingers 7.12502
lthumb 21.8539 21.9755
rfemur 0 0 0
rtibia 0
rfoot 0 0
rtoes 0
lfemur 18.6845 -6.63263 -12.3158
ltibia -18.8985
lfoot -2.80105 21.6309
ltoes -12.743
218
root -0.967623 18.1742 5.59441 -1.29918 -1.50642 -5.03765
lowerback 3.97847 1.02769 1.71193
upperback 0.530569 1.46013 0.917818
thorax -1.66613 0.720552 -0.0959725
lowerneck -10.6946 0.0342772 -0.645073
upperneck 32.1889 -0.123026 1.0992
head 12.3966 0.00973522 0.515907
rclavicle -2.01021e-014 -3.97569e-015
rhumerus -9.23783 35.5977 -83.989
rradius 92.2099
rwrist -35.1515
rhand -15.6275 -59.8285
rfingers 7.12502
rthumb 10.5595 -89.5432
lclavicle -2.01021e-014 -3.97569e-015
lhumerus -18.5771 -24.002 97.1507
lradius 94.0683
lwrist 72.5758
lhand -4.03395 -6.8751
lfingers 7.12502
lthumb 21.7214 21.9262
rfemur 0 0 0
rtibia 0
rfoot 0 0
rtoes 0
lfemur 18.665 -6.62806 -12.2535
ltibia -18.9536
lfoot -2.78997 21.6874
ltoes -12.6011
219
root -0.966206 18.1756 5.59465 -1.25297 -1.51563 -5.09499
lowerback 4.00444 1.05828 1.77987
upperback 0.518721 1.50463 0.913786
thorax -1.69037 0.742084 -0.141143
lowerneck -10.7114 -0.0022617 -0.615548
upperneck 32.0962 -0.174947 1.0757
head 12.3625 -0.0126062 0.494267
rclavicle 3.90115e-015 -1.63003e-014
rhumerus -8.69176 35.4646 -83.6863
rradius 91.9454
rwrist -35.1801
rhand -15.7005 -59.8403
rfingers 7.12502
rthumb 10.4891 -89.5586
lclavicle 3.90115e-015 -1.63003e-014
lhumerus -18.5716 -24.0485 97.1865
lradius 94.0833
lwrist 72.5066
lhand -3.96659 -6.80391
lfingers 7.12502
lthumb 21.786 21.9899
rfemur 0 0 0
rtibia 0
rfoot 0 0
rtoes 0
lfemur 18.6456 -6.6947 -12.1981
ltibia -19.0047
lfoot -2.86442 21.8189
ltoes -12.3543
220
root -0.96478 18.1761 5.59524 -1.23113 -1.4972 -5.12024
lowerback 4.03528 1.07821 1.80424
upperback 0.507643 1.53325 0.913205
thorax -1.71793 0.75594 -0.157684
lowerneck -10.6901 -0.041921 -0.579291
upperneck 31.981 -0.216076 0.999385
head 12.3111 -0.0361486 0.452696
rclavicle -1.05107e-014 5.1684e-015
rhumerus -8.12183 35.2737 -83.331
rradius 91.7032
rwrist -35.377
rhand -15.5811 -60.1265
rfingers 7.12502
rthumb 10.6043 -89.839
lclavicle -1.05107e-014 5.1684e-015
lhumerus -18.597 -24.0422 97.2481
lradius 94.0729
lwrist 72.2367
lhand -3.69403 -6.55235
lfingers 7.12502
lthumb 22.0478 22.2108
rfemur 0 0 0
rtibia 0
rfoot 0 0
rtoes 0
lfemur 18.6292 -6.70971 -12.172
ltibia -19.0354
lfoot -2.83242 21.8477
ltoes -12.3824
221
root -0.963521 18.176 5.596 -1.23071 -1.47565 -5.11327
lowerback 4.06753 1.08989 1.79564
upperback 0.50183 1.54942 0.915192
thorax -1.74199 0.763855 -0.152472
lowerneck -10.6638 -0.0673079 -0.602881
upperneck 31.9082 -0.246172 0.997707
head 12.276 -0.052533 0.451759
rclavicle 1.97915e-014 1.66979e-014
rhumerus -7.49271 35.0467 -82.9535
rradius 91.4679
rwrist -35.7146
rhand -15.3569 -60.6776
rfingers 7.12502
rthumb 10.8205 -269.621
lclavicle 1.97915e-014 1.66979e-014
lhumerus -18.6649 -24.0147 97.3229
lradius 94.0816
lwrist 71.9735
lhand -3.49419 -6.46604
lfingers 7.12502
lthumb 22.2396 22.2744
rfemur 0 0 0
rtibia 0
rfoot 0 0
rtoes 0
lfemur 18.6241 -6.71117 -12.1814
ltibia -19.0432
lfoot -2.77441 21.822
ltoes -12.5145
222
root -0.962742 18.177 5.59688 -1.21597 -1.4564 -5.09644
lowerback 4.06924 1.10902 1.78584
upperback 0.500453 1.57455 0.91567
thorax -1.74425 0.776445 -0.147909
lowerneck -10.6647 -0.0960272 -0.642808
upperneck 31.8602 -0.282356 1.01267
head 12.257 -0.0713439 0.459374
rclavicle -4.64659e-015 -1.19271e-014
rhumerus -6.82647 34.8774 -82.5382
rradius 91.204
rwrist -35.8931
rhand -15.34 -60.8485
rfingers 7.12502
rthumb 10.8368 -269.451
lclavicle -4.64659e-015 -1.19271e-014
lhumerus -18.692 -24.0255 97.3832
lradius 94.0883
lwrist 71.8307
lhand -3.41719 -6.41605
lfingers 7.12502
lthumb 22.3135 22.3156
rfemur 0 0 0
rtibia 0
rfoot 0 0
rtoes 0
lfemur 18.5982 -6.72407 -12.2011
ltibia -19.0375
lfoot -2.77857 21.8175
ltoes -12.4376
223
root -0.961879 18.1784 5.59789 -1.19715 -1.43779 -5.08181
lowerback 4.05639 1.12313 1.7696
upperback 0.498527 1.59237 0.916839
thorax -1.73924 0.785487 -0.138324
lowerneck -10.6778 -0.115071 -0.688995
upperneck 31.824 -0.303229 1.02853
head 12.2453 -0.083962 0.470541
rclavicle -9.93923e-016 7.95139e-016
rhumerus -6.15726 34.7367 -82.149
rradius 90.9087
rwrist -35.9429
rhand -15.3966 -60.574
rfingers 7.12502
rthumb 10.7822 -269.723
lclavicle -9.93923e-016 7.95139e-016
lhumerus -18.6787 -24.0326 97.4018
lradius 94.0941
lwrist 71.7968
lhand -3.41939 -6.15348
lfingers 7.12502
lthumb 22.3114 22.5784
rfemur 0 0 0
rtibia 0
rfoot 0 0
rtoes 0
lfemur 18.5624 -6.74614 -12.2201
ltibia -19.0219
lfoot -2.78077 21.8356
ltoes -12.1921
224
root -0.960559 18.1779 5.59937 -1.18676 -1.43942 -5.07852
lowerback 4.05742 1.13316 1.76171
upperback 0.484845 1.60576 0.921341
thorax -1.75402 0.792063 -0.130215
lowerneck -10.6633 -0.112953 -0.708116
upperneck 31.7973 -0.298454 1.03909
head 12.2313 -0.0826863 0.4784
rclavicle -5.50385e-015 3.97569e-015
rhumerus -5.49435 34.574 -81.7996
rradius 90.5581
rwrist -35.9279
rhand -15.4763 -59.9866
rfingers 7.12502
rthumb 10.7054 -449.694
lclavicle -5.50385e-015 3.97569e-015
lhumerus -18.7098 -24.0123 97.4047
lradius 94.1086
lwrist 71.7254
lhand -3.42025 -5.94982
lfingers 7.12502
lthumb 22.3106 22.7821
rfemur 0 0 0
rtibia 0
rfoot 0 0
rtoes 0
lfemur 18.5457 -6.74184 -12.2284
ltibia -19.005
lfoot -2.77671 21.8392
ltoes -12.073
225
root -0.959064 18.1766 5.60094 -1.18188 -1.43441 -5.08309
lowerback 4.05676 1.14123 1.77454
upperback 0.483853 1.61725 0.930084
thorax -1.7544 0.797728 -0.129044
lowerneck -10.663 -0.104433 -0.706527
upperneck 31.7612 -0.282243 1.02788
head 12.2163 -0.0765019 0.475891
rclavicle 8.72168e-015 1.19271e-015
rhumerus -4.77444 34.389 -81.394
rradius 90.1899
rwrist -35.7988
rhand -15.5224 -59.4856
rfingers 7.12502
rthumb 10.6609 -449.195
lclavicle 8.72168e-015 1.19271e-015
lhumerus -18.7242 -23.9967 97.398
lradius 94.1274
lwrist 71.595
lhand -3.33766 -5.84442
lfingers 7.12502
lthumb 22.3899 22.878
rfemur 0 0 0
rtibia 0
rfoot 0 0
rtoes 0
lfemur 18.5469 -6.73334 -12.2289
ltibia -19.0031
lfoot -2.79392 21.8364
ltoes -12.0862
226
root -0.95725 18.1762 5.60288 -1.18177 -1.4261 -5.08429
lowerback 4.03905 1.15552 1.80184
upperback 0.510059 1.63659 0.93264
thorax -1.71661 0.807613 -0.141973
lowerneck -10.711 -0.11018 -0.699617
upperneck 31.7258 -0.286782 1.01334
head 12.212 -0.0792272 0.46848
rclavicle 2.50344e-014 1.19271e-014
rhumerus -3.99067 34.1569 -80.9323
rradius 89.8573
rwrist -35.6217
rhand -15.3369 -59.3366
rfingers 7.12502
rthumb 10.8398 -449.037
lclavicle 2.50344e-014 1.19271e-014
lhumerus -18.6857 -24.0527 97.3658
lradius 94.1533
lwrist 71.5951
lhand -3.30914 -5.83235
lfingers 7.12502
lthumb 22.4172 22.8868
rfemur 0 0 0
rtibia 0
rfoot 0 0
rtoes 0
lfemur 18.5617 -6.75398 -12.24
ltibia -19.0101
lfoot -2.81257 21.8478
ltoes -12.0844
227
root -0.95573 18.1763 5.60492 -1.17067 -1.45395 -5.11039
lowerback 4.01409 1.1872 1.85317
upperback 0.535855 1.68002 0.940412
thorax -1.67426 0.829434 -0.164072
lowerneck -10.7925 -0.131536 -0.657952
upperneck 31.719 -0.312772 0.968089
head 12.2265 -0.0911846 0.440658
rclavicle 2.65502e-014 1.35174e-014
rhumerus -3.11453 33.915 -80.4036
rradius 89.487
rwrist -35.4975
rhand -15.0638 -59.1002
rfingers 7.12502
rthumb 11.1032 -448.786
lclavicle 2.65502e-014 1.35174e-014
lhumerus -18.6656 -24.1834 97.3499
lradius 94.176
lwrist 71.7698
lhand -3.42668 -6.09299
lfingers 7.12502
lthumb 22.3044 22.6397
rfemur 0 0 0
rtibia 0
rfoot 0 0
rtoes 0
lfemur 18.5683 -6.75362 -12.2189
ltibia -19.012
lfoot -2.82836 21.8507
ltoes -11.9542
228
root -0.954615 18.1765 5.60661 -1.15018 -1.481 -5.11711
lowerback 3.98933 1.21481 1.89564
upperback 0.553743 1.71765 0.941754
thorax -1.64023 0.848317 -0.187563
lowerneck -10.8674 -0.141794 -0.619353
upperneck 31.7068 -0.320789 0.919389
head 12.2372 -0.0959511 0.414423
rclavicle -3.70236e-015 4.37326e-015
rhumerus -2.16289 33.6775 -79.837
rradius 89.1513
rwrist -35.7077
rhand -15.1536 -58.8904
rfingers 7.12502
rthumb 11.0166 -448.581
lclavicle -3.70236e-015 4.37326e-015
lhumerus -18.6599 -24.2891 97.32
lradius 94.2073
lwrist 71.9507
lhand -3.49966 -6.31037
lfingers 7.12502
lthumb 22.2344 22.4307
rfemur 0 0 0
rtibia 0
rfoot 0 0
rtoes 0
lfemur 18.5592 -6.75593 -12.2153
ltibia -19.016
lfoot -2.86689 21.8745
ltoes -11.7838
229
root -0.953255 18.1763 5.60914 -1.14664 -1.49393 -5.08562
lowerback 3.97113 1.22892 1.90954
upperback 0.565973 1.73607 0.929011
thorax -1.61637 0.857658 -0.208725
lowerneck -10.924 -0.138892 -0.639853
upperneck 31.7257 -0.327726 0.971197
head 12.257 -0.0946648 0.436873
rclavicle -2.04997e-015 -3.97569e-015
rhumerus -1.25243 33.401 -79.3114
rradius 88.946
rwrist -36.3139
rhand -15.3937 -59.3277
rfingers 7.12502
rthumb 10.785 -449.031
lclavicle -2.04997e-015 -3.97569e-015
lhumerus -18.6511 -24.3203 97.2654
lradius 94.2263
lwrist 71.9976
lhand -3.46506 -6.31187
lfingers 7.12502
lthumb 22.2676 22.4252
rfemur 0 0 0
rtibia 0
rfoot 0 0
rtoes 0
lfemur 18.573 -6.78832 -12.2657
ltibia -19.0239
lfoot -2.91186 21.9245
ltoes -11.8174
230
root -0.951909 18.176 5.61209 -1.1473 -1.52522 -5.08773
lowerback 3.96442 1.24917 1.92317
upperback 0.562067 1.76374 0.940431
thorax -1.61611 0.871396 -0.205956
lowerneck -10.9681 -0.133792 -0.701364
upperneck 31.787 -0.347731 1.10409
head 12.2918 -0.0937915 0.495752
rclavicle -6.62201e-015 -4.77083e-015
rhumerus -0.396475 33.1296 -78.819
rradius 88.8046
rwrist -36.8456
rhand -15.4374 -59.9179
rfingers 7.12502
rthumb 10.7428 -449.623
lclavicle -6.62201e-015 -4.77083e-015
lhumerus -18.6684 -24.3312 97.2792
lradius 94.2371
lwrist 72.0489
lhand -3.56023 -6.46044
lfingers 7.12502
lthumb 22.1762 22.2875
rfemur 0 0 0
rtibia 0
rfoot 0 0
rtoes 0
lfemur 18.5977 -6.80792 -12.2817
ltibia -19.017
lfoot -2.93775 21.9712
ltoes -11.8309
